<svg width="31" height="30" viewBox="0 0 31 30" fill="none" xmlns="http://www.w3.org/2000/svg">
<path d="M30.129 18.1718V29.3015H23.6738V18.9178C23.6738 16.3069 22.7413 14.5261 20.4071 14.5261C18.6264 14.5261 17.5675 15.7293 17.0983 16.8904C16.9298 17.3055 16.8817 17.8771 16.8817 18.4606V29.3015H10.4325C10.4325 29.3015 10.5167 11.7106 10.4325 9.89376H16.8877V12.6431C16.8757 12.6672 16.8576 12.6852 16.8456 12.7033H16.8877V12.6431C17.748 11.3256 19.2761 9.43655 22.7052 9.43655C26.9465 9.43655 30.129 12.2099 30.129 18.1718ZM3.6825 0.538818C1.47461 0.538818 0.0307617 1.98868 0.0307617 3.88975C0.0307617 5.75473 1.4325 7.24069 3.59828 7.24069H3.64039C5.89039 7.24069 7.29213 5.74871 7.29213 3.88975C7.244 1.98868 5.88437 0.538818 3.6825 0.538818ZM0.409773 29.3015H6.85897V9.89376H0.409773V29.3015Z" fill="#F1F2F2"/>
</svg>
