<svg width="424" height="768" viewBox="0 0 424 768" fill="none" xmlns="http://www.w3.org/2000/svg">
<g opacity="0.1">
<mask id="mask0" mask-type="alpha" maskUnits="userSpaceOnUse" x="0" y="0" width="424" height="768">
<rect width="424" height="768" fill="#C4C4C4"/>
</mask>
<g mask="url(#mask0)">
<path d="M289.279 0.40341C163.174 -5.07942 59 94.9823 59 219.717V548.687C59 669.309 157.691 768 278.313 768C398.936 768 497.627 669.309 497.627 548.687V356.788C497.627 348.563 494.885 341.71 489.402 337.598C483.919 332.115 477.066 329.373 470.212 329.373C455.135 329.373 442.798 341.71 442.798 356.788V403.392C403.048 358.158 344.107 329.373 278.313 329.373C212.519 329.373 153.579 358.158 113.828 403.392V219.717C113.828 127.879 189.217 53.861 281.055 55.2317C371.521 56.6024 442.798 134.733 442.798 225.2V247.131C442.798 262.209 455.135 274.545 470.212 274.545C477.066 274.545 483.919 271.804 489.402 266.321C494.885 260.838 497.627 253.984 497.627 247.131V225.2C497.627 107.319 407.16 5.88624 289.279 0.40341Z" fill="#534582"/>
<path d="M497.627 548.687C497.627 669.309 398.936 768 278.313 768C157.691 768 59 669.309 59 548.687C59 492.488 79.5606 441.771 113.828 403.392C153.579 358.158 212.519 329.373 278.313 329.373C344.107 329.373 403.048 358.158 442.798 403.392C477.066 441.771 497.627 492.488 497.627 548.687Z" fill="#3D2683"/>
<path d="M278.313 603.515C308.594 603.515 333.142 578.967 333.142 548.687C333.142 518.406 308.594 493.858 278.313 493.858C248.032 493.858 223.485 518.406 223.485 548.687C223.485 578.967 248.032 603.515 278.313 603.515Z" fill="#EFEFEA"/>
<path d="M278.313 672.05C270.089 672.05 264.606 666.568 264.606 658.343V603.515C264.606 595.291 270.089 589.808 278.313 589.808C286.538 589.808 292.02 595.291 292.02 603.515V658.343C292.02 666.568 286.538 672.05 278.313 672.05Z" fill="#EFEFEA"/>
</g>
</g>
</svg>
