<svg width="113" height="112" viewBox="0 0 113 112" fill="none" xmlns="http://www.w3.org/2000/svg">
<path d="M45.4358 81.0528L78.8396 55.9999L45.4358 30.9471V81.0528ZM56.5704 0.326874C25.8388 0.326874 0.897308 25.2684 0.897308 55.9999C0.897308 86.7315 25.8388 111.673 56.5704 111.673C87.3019 111.673 112.243 86.7315 112.243 55.9999C112.243 25.2684 87.3019 0.326874 56.5704 0.326874ZM56.5704 100.538C32.0186 100.538 12.0319 80.5518 12.0319 55.9999C12.0319 31.4481 32.0186 11.4615 56.5704 11.4615C81.1222 11.4615 101.109 31.4481 101.109 55.9999C101.109 80.5518 81.1222 100.538 56.5704 100.538Z" fill="white" fill-opacity="0.8"/>
</svg>
